<mxfile host="app.diagrams.net" modified="2023-11-24T18:48:28.023Z" agent="Mozilla/5.0 (X11; Ubuntu; Linux x86_64; rv:120.0) Gecko/20100101 Firefox/120.0" etag="dYMcE464AkzkuMc-2j8u" version="22.1.3" type="device">
  <diagram name="PÃ¡gina-1" id="ttXAKaru0iT_CIW_Ri-S">
    <mxGraphModel dx="1195" dy="663" grid="1" gridSize="10" guides="1" tooltips="1" connect="1" arrows="1" fold="1" page="1" pageScale="1" pageWidth="827" pageHeight="1169" math="0" shadow="0">
      <root>
        <mxCell id="0" />
        <mxCell id="1" parent="0" />
        <mxCell id="2wxIdgBTLBPVxDN9rHHc-3" style="edgeStyle=orthogonalEdgeStyle;rounded=0;orthogonalLoop=1;jettySize=auto;html=1;entryX=0;entryY=0.5;entryDx=0;entryDy=0;shape=link;strokeWidth=0.5;" parent="1" source="2wxIdgBTLBPVxDN9rHHc-1" target="2wxIdgBTLBPVxDN9rHHc-2" edge="1">
          <mxGeometry relative="1" as="geometry" />
        </mxCell>
        <mxCell id="2wxIdgBTLBPVxDN9rHHc-27" style="edgeStyle=orthogonalEdgeStyle;rounded=0;orthogonalLoop=1;jettySize=auto;html=1;entryX=1;entryY=0.5;entryDx=0;entryDy=0;" parent="1" source="2wxIdgBTLBPVxDN9rHHc-1" target="2wxIdgBTLBPVxDN9rHHc-24" edge="1">
          <mxGeometry relative="1" as="geometry" />
        </mxCell>
        <mxCell id="2wxIdgBTLBPVxDN9rHHc-28" style="edgeStyle=orthogonalEdgeStyle;rounded=0;orthogonalLoop=1;jettySize=auto;html=1;entryX=1;entryY=0.5;entryDx=0;entryDy=0;" parent="1" source="2wxIdgBTLBPVxDN9rHHc-1" target="2wxIdgBTLBPVxDN9rHHc-25" edge="1">
          <mxGeometry relative="1" as="geometry" />
        </mxCell>
        <mxCell id="2wxIdgBTLBPVxDN9rHHc-29" style="edgeStyle=orthogonalEdgeStyle;rounded=0;orthogonalLoop=1;jettySize=auto;html=1;entryX=1;entryY=0.5;entryDx=0;entryDy=0;" parent="1" source="2wxIdgBTLBPVxDN9rHHc-1" target="2wxIdgBTLBPVxDN9rHHc-26" edge="1">
          <mxGeometry relative="1" as="geometry" />
        </mxCell>
        <mxCell id="2wxIdgBTLBPVxDN9rHHc-1" value="Cliente" style="rounded=1;arcSize=10;whiteSpace=wrap;html=1;align=center;" parent="1" vertex="1">
          <mxGeometry x="220" y="60" width="100" height="40" as="geometry" />
        </mxCell>
        <mxCell id="2wxIdgBTLBPVxDN9rHHc-8" style="edgeStyle=orthogonalEdgeStyle;rounded=0;orthogonalLoop=1;jettySize=auto;html=1;shape=link;strokeWidth=0.5;entryX=0.5;entryY=0;entryDx=0;entryDy=0;" parent="1" source="2wxIdgBTLBPVxDN9rHHc-2" target="YDji0mLvxf9R4GiWHGAf-22" edge="1">
          <mxGeometry relative="1" as="geometry">
            <mxPoint x="510" y="130" as="targetPoint" />
          </mxGeometry>
        </mxCell>
        <mxCell id="2wxIdgBTLBPVxDN9rHHc-12" style="edgeStyle=orthogonalEdgeStyle;rounded=0;orthogonalLoop=1;jettySize=auto;html=1;entryX=0.5;entryY=0;entryDx=0;entryDy=0;shape=link;endSize=6;strokeWidth=0.5;" parent="1" source="2wxIdgBTLBPVxDN9rHHc-13" target="2wxIdgBTLBPVxDN9rHHc-11" edge="1">
          <mxGeometry relative="1" as="geometry" />
        </mxCell>
        <mxCell id="2wxIdgBTLBPVxDN9rHHc-40" style="edgeStyle=orthogonalEdgeStyle;rounded=0;orthogonalLoop=1;jettySize=auto;html=1;entryX=0.5;entryY=1;entryDx=0;entryDy=0;" parent="1" source="2wxIdgBTLBPVxDN9rHHc-2" target="2wxIdgBTLBPVxDN9rHHc-36" edge="1">
          <mxGeometry relative="1" as="geometry">
            <Array as="points">
              <mxPoint x="510" y="50" />
              <mxPoint x="354" y="50" />
            </Array>
          </mxGeometry>
        </mxCell>
        <mxCell id="2wxIdgBTLBPVxDN9rHHc-41" style="edgeStyle=orthogonalEdgeStyle;rounded=0;orthogonalLoop=1;jettySize=auto;html=1;entryX=0.5;entryY=1;entryDx=0;entryDy=0;" parent="1" source="2wxIdgBTLBPVxDN9rHHc-2" target="2wxIdgBTLBPVxDN9rHHc-37" edge="1">
          <mxGeometry relative="1" as="geometry">
            <Array as="points">
              <mxPoint x="510" y="50" />
              <mxPoint x="451" y="50" />
            </Array>
          </mxGeometry>
        </mxCell>
        <mxCell id="2wxIdgBTLBPVxDN9rHHc-43" style="edgeStyle=orthogonalEdgeStyle;rounded=0;orthogonalLoop=1;jettySize=auto;html=1;entryX=0.5;entryY=1;entryDx=0;entryDy=0;" parent="1" source="2wxIdgBTLBPVxDN9rHHc-2" target="2wxIdgBTLBPVxDN9rHHc-38" edge="1">
          <mxGeometry relative="1" as="geometry">
            <Array as="points">
              <mxPoint x="510" y="50" />
              <mxPoint x="541" y="50" />
            </Array>
          </mxGeometry>
        </mxCell>
        <mxCell id="2wxIdgBTLBPVxDN9rHHc-44" style="edgeStyle=orthogonalEdgeStyle;rounded=0;orthogonalLoop=1;jettySize=auto;html=1;entryX=0.5;entryY=1;entryDx=0;entryDy=0;" parent="1" source="2wxIdgBTLBPVxDN9rHHc-2" target="2wxIdgBTLBPVxDN9rHHc-39" edge="1">
          <mxGeometry relative="1" as="geometry">
            <Array as="points">
              <mxPoint x="510" y="50" />
              <mxPoint x="636" y="50" />
            </Array>
          </mxGeometry>
        </mxCell>
        <mxCell id="YDji0mLvxf9R4GiWHGAf-5" style="edgeStyle=orthogonalEdgeStyle;rounded=0;orthogonalLoop=1;jettySize=auto;html=1;" edge="1" parent="1" source="2wxIdgBTLBPVxDN9rHHc-2" target="YDji0mLvxf9R4GiWHGAf-3">
          <mxGeometry relative="1" as="geometry">
            <Array as="points">
              <mxPoint x="510" y="50" />
              <mxPoint x="735" y="50" />
            </Array>
          </mxGeometry>
        </mxCell>
        <mxCell id="2wxIdgBTLBPVxDN9rHHc-2" value="Incidente" style="rounded=1;arcSize=10;whiteSpace=wrap;html=1;align=center;" parent="1" vertex="1">
          <mxGeometry x="460" y="60" width="100" height="40" as="geometry" />
        </mxCell>
        <mxCell id="2wxIdgBTLBPVxDN9rHHc-5" value="1" style="text;html=1;align=center;verticalAlign=middle;resizable=0;points=[];autosize=1;strokeColor=none;fillColor=none;" parent="1" vertex="1">
          <mxGeometry x="316" y="50" width="30" height="30" as="geometry" />
        </mxCell>
        <mxCell id="2wxIdgBTLBPVxDN9rHHc-6" value="N" style="text;html=1;align=center;verticalAlign=middle;resizable=0;points=[];autosize=1;strokeColor=none;fillColor=none;" parent="1" vertex="1">
          <mxGeometry x="430" y="50" width="30" height="30" as="geometry" />
        </mxCell>
        <mxCell id="2wxIdgBTLBPVxDN9rHHc-21" style="edgeStyle=orthogonalEdgeStyle;rounded=0;orthogonalLoop=1;jettySize=auto;html=1;entryX=1;entryY=0.5;entryDx=0;entryDy=0;shape=link;strokeWidth=0.5;" parent="1" source="2wxIdgBTLBPVxDN9rHHc-7" target="2wxIdgBTLBPVxDN9rHHc-20" edge="1">
          <mxGeometry relative="1" as="geometry" />
        </mxCell>
        <mxCell id="2wxIdgBTLBPVxDN9rHHc-47" style="edgeStyle=orthogonalEdgeStyle;rounded=0;orthogonalLoop=1;jettySize=auto;html=1;entryX=1;entryY=0.5;entryDx=0;entryDy=0;" parent="1" source="2wxIdgBTLBPVxDN9rHHc-7" target="2wxIdgBTLBPVxDN9rHHc-45" edge="1">
          <mxGeometry relative="1" as="geometry" />
        </mxCell>
        <mxCell id="2wxIdgBTLBPVxDN9rHHc-48" style="edgeStyle=orthogonalEdgeStyle;rounded=0;orthogonalLoop=1;jettySize=auto;html=1;entryX=1;entryY=0.5;entryDx=0;entryDy=0;" parent="1" source="2wxIdgBTLBPVxDN9rHHc-7" target="2wxIdgBTLBPVxDN9rHHc-46" edge="1">
          <mxGeometry relative="1" as="geometry" />
        </mxCell>
        <mxCell id="2wxIdgBTLBPVxDN9rHHc-7" value="Problema" style="rounded=1;arcSize=10;whiteSpace=wrap;html=1;align=center;" parent="1" vertex="1">
          <mxGeometry x="460" y="210" width="100" height="40" as="geometry" />
        </mxCell>
        <mxCell id="2wxIdgBTLBPVxDN9rHHc-9" value="1" style="text;html=1;align=center;verticalAlign=middle;resizable=0;points=[];autosize=1;strokeColor=none;fillColor=none;" parent="1" vertex="1">
          <mxGeometry x="506" y="90" width="30" height="30" as="geometry" />
        </mxCell>
        <mxCell id="2wxIdgBTLBPVxDN9rHHc-10" value="1" style="text;html=1;align=center;verticalAlign=middle;resizable=0;points=[];autosize=1;strokeColor=none;fillColor=none;" parent="1" vertex="1">
          <mxGeometry x="484" y="185" width="30" height="30" as="geometry" />
        </mxCell>
        <mxCell id="2wxIdgBTLBPVxDN9rHHc-33" style="edgeStyle=orthogonalEdgeStyle;rounded=0;orthogonalLoop=1;jettySize=auto;html=1;entryX=0;entryY=0.5;entryDx=0;entryDy=0;" parent="1" source="2wxIdgBTLBPVxDN9rHHc-11" target="2wxIdgBTLBPVxDN9rHHc-30" edge="1">
          <mxGeometry relative="1" as="geometry" />
        </mxCell>
        <mxCell id="2wxIdgBTLBPVxDN9rHHc-34" style="edgeStyle=orthogonalEdgeStyle;rounded=0;orthogonalLoop=1;jettySize=auto;html=1;entryX=0;entryY=0.5;entryDx=0;entryDy=0;" parent="1" source="2wxIdgBTLBPVxDN9rHHc-11" target="2wxIdgBTLBPVxDN9rHHc-31" edge="1">
          <mxGeometry relative="1" as="geometry" />
        </mxCell>
        <mxCell id="2wxIdgBTLBPVxDN9rHHc-35" style="edgeStyle=orthogonalEdgeStyle;rounded=0;orthogonalLoop=1;jettySize=auto;html=1;entryX=0;entryY=0.5;entryDx=0;entryDy=0;" parent="1" source="2wxIdgBTLBPVxDN9rHHc-11" target="2wxIdgBTLBPVxDN9rHHc-32" edge="1">
          <mxGeometry relative="1" as="geometry" />
        </mxCell>
        <mxCell id="YDji0mLvxf9R4GiWHGAf-10" style="edgeStyle=orthogonalEdgeStyle;rounded=0;orthogonalLoop=1;jettySize=auto;html=1;entryX=0;entryY=0.5;entryDx=0;entryDy=0;" edge="1" parent="1" source="2wxIdgBTLBPVxDN9rHHc-11" target="YDji0mLvxf9R4GiWHGAf-9">
          <mxGeometry relative="1" as="geometry">
            <Array as="points">
              <mxPoint x="760" y="230" />
              <mxPoint x="760" y="305" />
            </Array>
          </mxGeometry>
        </mxCell>
        <mxCell id="YDji0mLvxf9R4GiWHGAf-11" style="edgeStyle=orthogonalEdgeStyle;rounded=0;orthogonalLoop=1;jettySize=auto;html=1;shape=link;strokeWidth=0.5;entryX=0.5;entryY=0;entryDx=0;entryDy=0;" edge="1" parent="1" source="2wxIdgBTLBPVxDN9rHHc-11" target="YDji0mLvxf9R4GiWHGAf-12">
          <mxGeometry relative="1" as="geometry">
            <mxPoint x="690" y="320" as="targetPoint" />
          </mxGeometry>
        </mxCell>
        <mxCell id="2wxIdgBTLBPVxDN9rHHc-11" value="Tecnico" style="rounded=1;arcSize=10;whiteSpace=wrap;html=1;align=center;" parent="1" vertex="1">
          <mxGeometry x="640" y="210" width="100" height="40" as="geometry" />
        </mxCell>
        <mxCell id="2wxIdgBTLBPVxDN9rHHc-14" value="N" style="text;html=1;align=center;verticalAlign=middle;resizable=0;points=[];autosize=1;strokeColor=none;fillColor=none;" parent="1" vertex="1">
          <mxGeometry x="556" y="58" width="30" height="30" as="geometry" />
        </mxCell>
        <mxCell id="2wxIdgBTLBPVxDN9rHHc-55" style="edgeStyle=orthogonalEdgeStyle;rounded=0;orthogonalLoop=1;jettySize=auto;html=1;entryX=0;entryY=0.5;entryDx=0;entryDy=0;" parent="1" source="2wxIdgBTLBPVxDN9rHHc-15" target="2wxIdgBTLBPVxDN9rHHc-53" edge="1">
          <mxGeometry relative="1" as="geometry" />
        </mxCell>
        <mxCell id="2wxIdgBTLBPVxDN9rHHc-56" style="edgeStyle=orthogonalEdgeStyle;rounded=0;orthogonalLoop=1;jettySize=auto;html=1;entryX=0;entryY=0.5;entryDx=0;entryDy=0;" parent="1" source="2wxIdgBTLBPVxDN9rHHc-15" target="2wxIdgBTLBPVxDN9rHHc-54" edge="1">
          <mxGeometry relative="1" as="geometry" />
        </mxCell>
        <mxCell id="2wxIdgBTLBPVxDN9rHHc-15" value="Especialidad" style="rounded=1;arcSize=10;whiteSpace=wrap;html=1;align=center;" parent="1" vertex="1">
          <mxGeometry x="640" y="500" width="100" height="40" as="geometry" />
        </mxCell>
        <mxCell id="2wxIdgBTLBPVxDN9rHHc-17" value="N" style="text;html=1;align=center;verticalAlign=middle;resizable=0;points=[];autosize=1;strokeColor=none;fillColor=none;" parent="1" vertex="1">
          <mxGeometry x="686" y="250" width="30" height="30" as="geometry" />
        </mxCell>
        <mxCell id="2wxIdgBTLBPVxDN9rHHc-18" value="N" style="text;html=1;align=center;verticalAlign=middle;resizable=0;points=[];autosize=1;strokeColor=none;fillColor=none;" parent="1" vertex="1">
          <mxGeometry x="656" y="470" width="30" height="30" as="geometry" />
        </mxCell>
        <mxCell id="2wxIdgBTLBPVxDN9rHHc-19" value="" style="edgeStyle=orthogonalEdgeStyle;rounded=0;orthogonalLoop=1;jettySize=auto;html=1;entryX=0.5;entryY=0;entryDx=0;entryDy=0;shape=link;endSize=6;strokeWidth=0.5;exitX=0.133;exitY=0.733;exitDx=0;exitDy=0;exitPerimeter=0;" parent="1" source="2wxIdgBTLBPVxDN9rHHc-14" edge="1">
          <mxGeometry relative="1" as="geometry">
            <mxPoint x="574.9999999999998" y="110" as="sourcePoint" />
            <mxPoint x="686" y="210" as="targetPoint" />
          </mxGeometry>
        </mxCell>
        <mxCell id="2wxIdgBTLBPVxDN9rHHc-13" value="1" style="text;html=1;align=center;verticalAlign=middle;resizable=0;points=[];autosize=1;strokeColor=none;fillColor=none;" parent="1" vertex="1">
          <mxGeometry x="656" y="180" width="30" height="30" as="geometry" />
        </mxCell>
        <mxCell id="2wxIdgBTLBPVxDN9rHHc-51" style="edgeStyle=orthogonalEdgeStyle;rounded=0;orthogonalLoop=1;jettySize=auto;html=1;entryX=1;entryY=0.5;entryDx=0;entryDy=0;" parent="1" source="2wxIdgBTLBPVxDN9rHHc-20" target="2wxIdgBTLBPVxDN9rHHc-49" edge="1">
          <mxGeometry relative="1" as="geometry" />
        </mxCell>
        <mxCell id="2wxIdgBTLBPVxDN9rHHc-52" style="edgeStyle=orthogonalEdgeStyle;rounded=0;orthogonalLoop=1;jettySize=auto;html=1;entryX=1;entryY=0.5;entryDx=0;entryDy=0;" parent="1" source="2wxIdgBTLBPVxDN9rHHc-20" target="2wxIdgBTLBPVxDN9rHHc-50" edge="1">
          <mxGeometry relative="1" as="geometry">
            <Array as="points">
              <mxPoint x="200" y="230" />
              <mxPoint x="200" y="226" />
            </Array>
          </mxGeometry>
        </mxCell>
        <mxCell id="2wxIdgBTLBPVxDN9rHHc-20" value="TipoProblema" style="rounded=1;arcSize=10;whiteSpace=wrap;html=1;align=center;" parent="1" vertex="1">
          <mxGeometry x="220" y="210" width="100" height="40" as="geometry" />
        </mxCell>
        <mxCell id="2wxIdgBTLBPVxDN9rHHc-22" value="1" style="text;html=1;align=center;verticalAlign=middle;resizable=0;points=[];autosize=1;strokeColor=none;fillColor=none;" parent="1" vertex="1">
          <mxGeometry x="316" y="206" width="30" height="30" as="geometry" />
        </mxCell>
        <mxCell id="2wxIdgBTLBPVxDN9rHHc-23" value="1" style="text;html=1;align=center;verticalAlign=middle;resizable=0;points=[];autosize=1;strokeColor=none;fillColor=none;" parent="1" vertex="1">
          <mxGeometry x="436" y="228" width="30" height="30" as="geometry" />
        </mxCell>
        <mxCell id="2wxIdgBTLBPVxDN9rHHc-24" value="idcli" style="ellipse;whiteSpace=wrap;html=1;align=center;" parent="1" vertex="1">
          <mxGeometry x="90" y="20" width="90" height="30" as="geometry" />
        </mxCell>
        <mxCell id="2wxIdgBTLBPVxDN9rHHc-25" value="rasonSocial" style="ellipse;whiteSpace=wrap;html=1;align=center;" parent="1" vertex="1">
          <mxGeometry x="90" y="60" width="90" height="30" as="geometry" />
        </mxCell>
        <mxCell id="2wxIdgBTLBPVxDN9rHHc-26" value="Cuit" style="ellipse;whiteSpace=wrap;html=1;align=center;" parent="1" vertex="1">
          <mxGeometry x="90" y="100" width="90" height="30" as="geometry" />
        </mxCell>
        <mxCell id="2wxIdgBTLBPVxDN9rHHc-30" value="idTec" style="ellipse;whiteSpace=wrap;html=1;align=center;" parent="1" vertex="1">
          <mxGeometry x="775" y="185" width="70" height="25" as="geometry" />
        </mxCell>
        <mxCell id="2wxIdgBTLBPVxDN9rHHc-31" value="Nombre" style="ellipse;whiteSpace=wrap;html=1;align=center;" parent="1" vertex="1">
          <mxGeometry x="775" y="214" width="70" height="32" as="geometry" />
        </mxCell>
        <mxCell id="2wxIdgBTLBPVxDN9rHHc-32" value="medioNotificacion" style="ellipse;whiteSpace=wrap;html=1;align=center;" parent="1" vertex="1">
          <mxGeometry x="775" y="246" width="100" height="40" as="geometry" />
        </mxCell>
        <mxCell id="2wxIdgBTLBPVxDN9rHHc-36" value="idInc" style="ellipse;whiteSpace=wrap;html=1;align=center;" parent="1" vertex="1">
          <mxGeometry x="316" y="10" width="76" height="20" as="geometry" />
        </mxCell>
        <mxCell id="2wxIdgBTLBPVxDN9rHHc-37" value="descripcion" style="ellipse;whiteSpace=wrap;html=1;align=center;" parent="1" vertex="1">
          <mxGeometry x="408" y="10" width="86" height="25" as="geometry" />
        </mxCell>
        <mxCell id="2wxIdgBTLBPVxDN9rHHc-38" value="estado" style="ellipse;whiteSpace=wrap;html=1;align=center;" parent="1" vertex="1">
          <mxGeometry x="506" y="8.5" width="70" height="23" as="geometry" />
        </mxCell>
        <mxCell id="2wxIdgBTLBPVxDN9rHHc-39" value="fechaResolcuion" style="ellipse;whiteSpace=wrap;html=1;align=center;" parent="1" vertex="1">
          <mxGeometry x="586" y="8.5" width="100" height="25" as="geometry" />
        </mxCell>
        <mxCell id="2wxIdgBTLBPVxDN9rHHc-45" value="idPro" style="ellipse;whiteSpace=wrap;html=1;align=center;" parent="1" vertex="1">
          <mxGeometry x="418" y="286" width="66" height="20" as="geometry" />
        </mxCell>
        <mxCell id="2wxIdgBTLBPVxDN9rHHc-46" value="descripcion" style="ellipse;whiteSpace=wrap;html=1;align=center;" parent="1" vertex="1">
          <mxGeometry x="410" y="310" width="74" height="30" as="geometry" />
        </mxCell>
        <mxCell id="2wxIdgBTLBPVxDN9rHHc-49" value="idTP" style="ellipse;whiteSpace=wrap;html=1;align=center;" parent="1" vertex="1">
          <mxGeometry x="80" y="170" width="100" height="25" as="geometry" />
        </mxCell>
        <mxCell id="2wxIdgBTLBPVxDN9rHHc-50" value="nombre" style="ellipse;whiteSpace=wrap;html=1;align=center;" parent="1" vertex="1">
          <mxGeometry x="80" y="206" width="100" height="40" as="geometry" />
        </mxCell>
        <mxCell id="2wxIdgBTLBPVxDN9rHHc-53" value="idEsp" style="ellipse;whiteSpace=wrap;html=1;align=center;" parent="1" vertex="1">
          <mxGeometry x="787.5" y="500" width="75" height="20" as="geometry" />
        </mxCell>
        <mxCell id="2wxIdgBTLBPVxDN9rHHc-54" value="nombre" style="ellipse;whiteSpace=wrap;html=1;align=center;" parent="1" vertex="1">
          <mxGeometry x="787.5" y="540" width="75" height="20" as="geometry" />
        </mxCell>
        <mxCell id="2wxIdgBTLBPVxDN9rHHc-57" value="&lt;div style=&quot;font-size: 17px;&quot;&gt;&lt;font style=&quot;font-size: 17px;&quot;&gt;&lt;b&gt;Diagrama Entidad RelaciÃ³n&lt;/b&gt;&lt;/font&gt;&lt;/div&gt;&lt;div style=&quot;font-size: 17px;&quot;&gt;&lt;font style=&quot;font-size: 17px;&quot;&gt;&lt;b&gt;Sistema de Reporte&lt;/b&gt;&lt;/font&gt;&lt;/div&gt;&lt;div style=&quot;font-size: 17px;&quot;&gt;&lt;font style=&quot;font-size: 17px;&quot;&gt;&lt;b&gt;de Incidentes&lt;/b&gt;&lt;font style=&quot;font-size: 17px;&quot;&gt;&lt;br&gt;&lt;/font&gt;&lt;/font&gt;&lt;/div&gt;" style="text;html=1;align=center;verticalAlign=middle;resizable=0;points=[];autosize=1;strokeColor=none;fillColor=none;" parent="1" vertex="1">
          <mxGeometry x="120" y="306" width="240" height="70" as="geometry" />
        </mxCell>
        <mxCell id="YDji0mLvxf9R4GiWHGAf-1" value="1" style="text;html=1;align=center;verticalAlign=middle;resizable=0;points=[];autosize=1;strokeColor=none;fillColor=none;" vertex="1" parent="1">
          <mxGeometry x="426" y="78" width="30" height="30" as="geometry" />
        </mxCell>
        <mxCell id="YDji0mLvxf9R4GiWHGAf-2" value="1" style="text;html=1;align=center;verticalAlign=middle;resizable=0;points=[];autosize=1;strokeColor=none;fillColor=none;" vertex="1" parent="1">
          <mxGeometry x="316" y="78" width="30" height="30" as="geometry" />
        </mxCell>
        <mxCell id="YDji0mLvxf9R4GiWHGAf-3" value="idcli1" style="ellipse;whiteSpace=wrap;html=1;align=center;fillColor=#D5E8D4;strokeColor=#82b366;gradientColor=none;gradientDirection=west;" vertex="1" parent="1">
          <mxGeometry x="695" y="13.5" width="80" height="20" as="geometry" />
        </mxCell>
        <mxCell id="YDji0mLvxf9R4GiWHGAf-7" value="1" style="text;html=1;align=center;verticalAlign=middle;resizable=0;points=[];autosize=1;strokeColor=none;fillColor=none;" vertex="1" parent="1">
          <mxGeometry x="556" y="78" width="30" height="30" as="geometry" />
        </mxCell>
        <mxCell id="YDji0mLvxf9R4GiWHGAf-8" value="1" style="text;html=1;align=center;verticalAlign=middle;resizable=0;points=[];autosize=1;strokeColor=none;fillColor=none;" vertex="1" parent="1">
          <mxGeometry x="686" y="180" width="30" height="30" as="geometry" />
        </mxCell>
        <mxCell id="YDji0mLvxf9R4GiWHGAf-9" value="idInc" style="ellipse;whiteSpace=wrap;html=1;align=center;fillColor=#D5E8D4;strokeColor=#82b366;" vertex="1" parent="1">
          <mxGeometry x="775" y="290" width="95" height="30" as="geometry" />
        </mxCell>
        <mxCell id="YDji0mLvxf9R4GiWHGAf-13" style="edgeStyle=orthogonalEdgeStyle;rounded=0;orthogonalLoop=1;jettySize=auto;html=1;shape=link;strokeWidth=0.5;" edge="1" parent="1" source="YDji0mLvxf9R4GiWHGAf-12" target="2wxIdgBTLBPVxDN9rHHc-15">
          <mxGeometry relative="1" as="geometry" />
        </mxCell>
        <mxCell id="YDji0mLvxf9R4GiWHGAf-18" style="edgeStyle=orthogonalEdgeStyle;rounded=0;orthogonalLoop=1;jettySize=auto;html=1;entryX=1;entryY=0.5;entryDx=0;entryDy=0;" edge="1" parent="1" source="YDji0mLvxf9R4GiWHGAf-12" target="YDji0mLvxf9R4GiWHGAf-16">
          <mxGeometry relative="1" as="geometry" />
        </mxCell>
        <mxCell id="YDji0mLvxf9R4GiWHGAf-19" style="edgeStyle=orthogonalEdgeStyle;rounded=0;orthogonalLoop=1;jettySize=auto;html=1;entryX=1;entryY=0.5;entryDx=0;entryDy=0;" edge="1" parent="1" source="YDji0mLvxf9R4GiWHGAf-12" target="YDji0mLvxf9R4GiWHGAf-17">
          <mxGeometry relative="1" as="geometry" />
        </mxCell>
        <mxCell id="YDji0mLvxf9R4GiWHGAf-12" value="N:M" style="shape=rhombus;perimeter=rhombusPerimeter;whiteSpace=wrap;html=1;align=center;" vertex="1" parent="1">
          <mxGeometry x="630" y="360" width="120" height="60" as="geometry" />
        </mxCell>
        <mxCell id="YDji0mLvxf9R4GiWHGAf-14" value="1" style="text;html=1;align=center;verticalAlign=middle;resizable=0;points=[];autosize=1;strokeColor=none;fillColor=none;" vertex="1" parent="1">
          <mxGeometry x="656" y="248" width="30" height="30" as="geometry" />
        </mxCell>
        <mxCell id="YDji0mLvxf9R4GiWHGAf-15" value="1" style="text;html=1;align=center;verticalAlign=middle;resizable=0;points=[];autosize=1;strokeColor=none;fillColor=none;" vertex="1" parent="1">
          <mxGeometry x="686" y="470" width="30" height="30" as="geometry" />
        </mxCell>
        <mxCell id="YDji0mLvxf9R4GiWHGAf-16" value="idTec1" style="ellipse;whiteSpace=wrap;html=1;align=center;fillColor=#d5e8d4;strokeColor=#82b366;" vertex="1" parent="1">
          <mxGeometry x="500" y="370" width="91" height="30" as="geometry" />
        </mxCell>
        <mxCell id="YDji0mLvxf9R4GiWHGAf-17" value="idEsp1" style="ellipse;whiteSpace=wrap;html=1;align=center;fillColor=#d5e8d4;strokeColor=#82b366;" vertex="1" parent="1">
          <mxGeometry x="500" y="410" width="91" height="30" as="geometry" />
        </mxCell>
        <mxCell id="YDji0mLvxf9R4GiWHGAf-20" value="N" style="text;html=1;align=center;verticalAlign=middle;resizable=0;points=[];autosize=1;strokeColor=none;fillColor=none;" vertex="1" parent="1">
          <mxGeometry x="506" y="185" width="30" height="30" as="geometry" />
        </mxCell>
        <mxCell id="YDji0mLvxf9R4GiWHGAf-21" value="N" style="text;html=1;align=center;verticalAlign=middle;resizable=0;points=[];autosize=1;strokeColor=none;fillColor=none;" vertex="1" parent="1">
          <mxGeometry x="484" y="90" width="30" height="30" as="geometry" />
        </mxCell>
        <mxCell id="YDji0mLvxf9R4GiWHGAf-24" style="edgeStyle=orthogonalEdgeStyle;rounded=0;orthogonalLoop=1;jettySize=auto;html=1;entryX=0.5;entryY=0;entryDx=0;entryDy=0;shape=link;strokeWidth=0.5;" edge="1" parent="1" source="YDji0mLvxf9R4GiWHGAf-22" target="2wxIdgBTLBPVxDN9rHHc-7">
          <mxGeometry relative="1" as="geometry" />
        </mxCell>
        <mxCell id="YDji0mLvxf9R4GiWHGAf-27" style="edgeStyle=orthogonalEdgeStyle;rounded=0;orthogonalLoop=1;jettySize=auto;html=1;" edge="1" parent="1" source="YDji0mLvxf9R4GiWHGAf-22" target="YDji0mLvxf9R4GiWHGAf-25">
          <mxGeometry relative="1" as="geometry">
            <Array as="points">
              <mxPoint x="460" y="155" />
              <mxPoint x="460" y="130" />
            </Array>
          </mxGeometry>
        </mxCell>
        <mxCell id="YDji0mLvxf9R4GiWHGAf-28" style="edgeStyle=orthogonalEdgeStyle;rounded=0;orthogonalLoop=1;jettySize=auto;html=1;" edge="1" parent="1" source="YDji0mLvxf9R4GiWHGAf-22" target="YDji0mLvxf9R4GiWHGAf-26">
          <mxGeometry relative="1" as="geometry">
            <Array as="points">
              <mxPoint x="460" y="155" />
              <mxPoint x="460" y="155" />
            </Array>
          </mxGeometry>
        </mxCell>
        <mxCell id="YDji0mLvxf9R4GiWHGAf-22" value="N:M" style="shape=rhombus;perimeter=rhombusPerimeter;whiteSpace=wrap;html=1;align=center;" vertex="1" parent="1">
          <mxGeometry x="470" y="140" width="80" height="30" as="geometry" />
        </mxCell>
        <mxCell id="YDji0mLvxf9R4GiWHGAf-25" value="idInc1" style="ellipse;whiteSpace=wrap;html=1;align=center;fillStyle=auto;fillColor=#D5E8D4;strokeColor=default;gradientColor=none;gradientDirection=east;" vertex="1" parent="1">
          <mxGeometry x="382" y="120" width="64" height="20" as="geometry" />
        </mxCell>
        <mxCell id="YDji0mLvxf9R4GiWHGAf-26" value="idPro1" style="ellipse;whiteSpace=wrap;html=1;align=center;fillColor=#D5E8D4;" vertex="1" parent="1">
          <mxGeometry x="380" y="146.25" width="66" height="23.75" as="geometry" />
        </mxCell>
        <mxCell id="YDji0mLvxf9R4GiWHGAf-29" value="1" style="text;html=1;align=center;verticalAlign=middle;resizable=0;points=[];autosize=1;strokeColor=none;fillColor=none;" vertex="1" parent="1">
          <mxGeometry x="316" y="228" width="30" height="30" as="geometry" />
        </mxCell>
        <mxCell id="YDji0mLvxf9R4GiWHGAf-30" value="1" style="text;html=1;align=center;verticalAlign=middle;resizable=0;points=[];autosize=1;strokeColor=none;fillColor=none;" vertex="1" parent="1">
          <mxGeometry x="436" y="206" width="30" height="30" as="geometry" />
        </mxCell>
      </root>
    </mxGraphModel>
  </diagram>
</mxfile>
